Coordinates
version=1
nRows=19
nColumns=36
inDegrees=yes

Units are S.I. units (second, meters, Newtons, ...)
If the header above contains a line with 'inDegrees', this indicates whether rotational values are in degrees (yes) or radians (no).

endheader
time	pelvis_tilt	pelvis_list	pelvis_rotation	pelvis_tx	pelvis_ty	pelvis_tz	hip_flexion_r	hip_adduction_r	hip_rotation_r	knee_angle_r	knee_angle_r_beta	ankle_angle_r	subtalar_angle_r	mtp_angle_r	hip_flexion_l	hip_adduction_l	hip_rotation_l	knee_angle_l	knee_angle_l_beta	ankle_angle_l	subtalar_angle_l	mtp_angle_l	lumbar_extension	lumbar_bending	lumbar_rotation	arm_flex_r	arm_add_r	arm_rot_r	elbow_flex_r	pro_sup_r	arm_flex_l	arm_add_l	arm_rot_l	elbow_flex_l	pro_sup_l
      2.33333330	     -4.31945001	     -3.73768782	     -4.49551648	      1.46830048	      1.33671792	     -0.32079503	      2.92955372	      0.48913703	     -9.72619404	      0.21580259	      0.00376647	    -22.82171886	      6.46522932	     -7.49999987	     -0.55961640	     -9.88383596	     -6.54229080	      0.97844955	      0.01707717	    -27.58943867	      5.57686968	     -7.49999987	      0.03886728	      3.11963545	      6.19518838	    -25.85878741	    -18.23859068	     -8.38787296	      4.60561146	     63.31513095	    -14.21832909	    -11.43152308	     -5.96001116	      9.77666576	     77.12354781
      2.35000000	     -3.85414320	     -4.32673372	     -3.76232861	      1.47550647	      1.30891195	     -0.32301951	      2.32896339	      0.74597716	     -9.30452574	      0.27035026	      0.00471850	    -22.57373761	      6.40064083	     -7.49999987	     -0.94357842	    -10.68620645	     -6.58928924	      1.11261798	      0.01941885	    -27.05326079	      5.37032383	     -7.49999987	     -0.17580691	      3.55199410	      7.46829011	    -27.14891786	    -17.84142396	     -8.19961473	      4.88850173	     65.42456661	    -12.44393738	    -11.60180248	      0.37379843	      9.92543985	     78.46265667
      2.36666670	     -2.88836211	     -5.09596697	     -3.13135619	      1.48376242	      1.28605453	     -0.32017037	      1.29729605	      1.29376145	     -9.66657664	      0.38517650	      0.00672260	    -23.19355275	      6.44018749	     -7.49999987	     -1.99544078	    -11.77668647	     -6.78251951	      1.33980814	      0.02338406	    -27.08621712	      5.13213406	     -7.49999987	     -0.97262008	      3.89262301	      8.19377867	    -28.22406110	    -17.53909104	     -8.09877342	      6.33389345	     65.13478903	    -11.90066300	    -11.38334850	      0.85030517	     12.57378819	     76.54676274
      2.38333330	     -2.42764568	     -5.63279303	     -2.76221880	      1.48669218	      1.26694315	     -0.31889637	      0.97727125	      1.69192732	     -9.27723452	      0.47581554	      0.00830455	    -23.61187420	      6.24116820	     -7.49999987	     -2.17053577	    -12.73824929	     -7.33766997	      1.89458576	      0.03306676	    -27.21119139	      4.98912124	     -7.49999987	     -0.87262696	      4.00294420	      9.12567966	    -28.21498675	    -16.59989424	     -7.36214961	      6.83566229	     65.42564696	    -10.75657416	    -11.25336408	      2.86734845	     12.14063618	     75.15055451
      2.40000000	     -1.87025348	     -6.01629513	     -2.25573652	      1.48575351	      1.23884564	     -0.32047818	      0.67966748	      1.89388470	     -9.54594351	      0.54046947	      0.00943297	    -23.79126532	      6.26187042	     -7.49999987	     -2.21523453	    -13.57834745	     -7.59044189	      2.24966735	      0.03926410	    -27.49327201	      4.70249277	     -7.49999987	     -1.22540830	      3.96025493	      9.74200968	    -28.16527365	    -15.98483661	     -6.17291312	      8.58040924	     65.65908078	    -10.09446812	    -11.41998473	      4.73335735	     12.84338418	     73.84482487
      2.41666670	     -1.48756728	     -6.05972429	     -1.69799232	      1.48396482	      1.21321301	     -0.32218678	      0.57519722	      1.69293631	     -9.77341471	      0.56511411	      0.00986310	    -22.97401518	      6.47769885	     -7.49999987	     -1.68146306	    -14.02948563	     -7.74013697	      2.66641989	      0.04653781	    -27.10949283	      4.50357607	     -7.49999987	     -1.43476005	      3.65793369	      9.89823305	    -27.59457329	    -15.47011871	     -5.14568621	      9.96354129	     65.57626834	     -9.11122318	    -11.33911452	      5.89273426	     13.20115754	     72.37659813
      2.43333330	     -0.81215630	     -6.08270319	     -1.17929764	      1.48692494	      1.17763714	     -0.32139098	      0.05709155	      1.41678006	     -9.57604940	      0.80965597	      0.01413116	    -22.07793046	      6.48227172	     -7.49999987	     -1.69122861	    -14.34033678	     -7.84048833	      3.25996398	      0.05689710	    -26.44631891	      4.16076197	     -7.49999987	     -1.85184247	      3.35141634	      9.80388632	    -26.55987988	    -14.91879340	     -3.90913684	     10.25575067	     65.33245226	     -8.64329773	    -11.49235287	      7.34320204	     14.03667309	     70.63513757
      2.45000000	     -0.62438839	     -6.12715655	     -0.76555263	      1.48488885	      1.14218296	     -0.32270676	      0.11697037	      1.09329696	     -9.18995498	      1.33540211	      0.02330716	    -21.38175572	      6.41077024	     -7.49999987	     -1.05701067	    -14.66064918	     -7.77573496	      3.95149644	      0.06896662	    -26.08005694	      3.97935873	     -7.49999987	     -1.75014579	      3.28883915	      9.76962527	    -25.98351929	    -14.38728132	     -3.83621223	     11.15984848	     65.29388791	     -8.41988968	    -11.59442095	      7.33342897	     14.72263499	     70.48687946
      2.46666670	      0.74287626	     -6.59592661	     -0.08645667	      1.48288231	      1.10458057	     -0.32490668	     -0.64807271	      1.00708691	     -8.68306440	      2.51410138	      0.04387935	    -20.90841883	      5.92553632	     -7.49999987	     -1.56804945	    -15.27634704	     -7.00164861	      4.92121995	      0.08589149	    -24.82757200	      3.56039177	     -7.49999987	     -3.55590375	      3.69498679	      8.87361301	    -23.49586102	    -14.24659942	     -2.83923835	     10.22978968	     64.80066535	     -7.63684637	    -11.30505064	      7.27910900	     14.38415133	     68.47168679
      2.48333330	      2.63130120	     -6.70019664	      0.43728244	      1.47921339	      1.06715448	     -0.32684569	     -1.64508433	      0.64121391	     -7.63348605	      4.83904558	      0.08445728	    -18.38477988	      4.52679421	     -7.49999987	     -2.29290841	    -15.52074597	     -6.14493480	      7.31326051	      0.12764047	    -21.15760379	      2.60076076	     -7.49999987	     -6.11703359	      3.86020041	      8.39567818	    -21.21162343	    -13.98897412	     -2.40569773	     10.76890385	     64.80816274	     -6.77992927	    -11.22073068	      7.28076780	     15.22510384	     68.01027788
      2.50000000	      5.66157073	     -6.08109915	      1.02602839	      1.47608223	      1.03003941	     -0.32859448	     -3.63704608	     -0.48322672	     -5.88417093	      9.12967710	      0.15934292	    -12.03421351	      2.56894551	     -7.49999987	     -3.47287532	    -15.09895237	     -4.91967025	     12.21807422	      0.21324562	    -13.17084709	      0.93845161	     -7.49999987	    -10.57453238	      2.90735594	      6.30646522	    -16.35859788	    -14.01716495	      2.36975676	      8.40812357	     66.38251789	     -6.08919906	    -11.28300473	      7.14301011	     16.20920285	     65.09490395
      2.51666670	      9.25773198	     -6.06565879	      1.73883360	      1.46512865	      0.99436075	     -0.32820054	     -4.49433747	     -0.73722972	     -3.39329631	     16.59838268	      0.28969643	     -1.71157270	     -1.06390378	     -7.49999987	     -4.67599242	    -15.35379616	     -3.85264963	     19.14711981	      0.33418028	     -0.11367164	      0.07919491	     -7.49999987	    -16.78775182	      2.83138921	      5.06815506	    -11.91652635	    -13.78513326	      4.23957923	      8.51535782	     66.56774359	     -4.34362393	    -11.25521531	      6.71742196	     17.16698482	     64.26945053
      2.53333330	     12.33599213	     -5.89885165	      2.15254835	      1.45877094	      0.95952282	     -0.32911716	     -3.85776442	     -0.92973482	     -1.35481458	     26.01078355	      0.45397381	     10.64827175	     -3.61414716	     -7.49999987	     -4.83491578	    -15.72221346	     -3.26679441	     27.09474840	      0.47289257	     13.53861976	      0.27396128	     -7.49999987	    -23.19485983	      2.71975050	      4.33374023	     -7.99438247	    -13.60395635	      5.90029743	      9.01407673	     66.38138440	     -2.47714328	    -11.17080555	      5.85283097	     17.74289244	     63.66922807
      2.55000000	     14.66291018	     -5.57717980	      2.30691240	      1.45109823	      0.93196733	     -0.32861566	     -2.23858663	     -1.30461034	     -0.12359532	     35.52730842	      0.62006851	     22.57057379	     -3.78178268	     -7.49999987	     -3.65192073	    -16.05992106	     -2.63684215	     35.72870072	      0.62358347	     25.80329536	      1.41128859	     -7.49999987	    -28.98467247	      2.24880055	      4.00446878	     -3.85993304	    -13.66789373	      6.61672938	     10.88050738	     66.32205017	     -0.19265200	    -11.25589993	      5.30918710	     18.29931429	     63.49135101
      2.56666670	     15.10902280	     -4.93170254	      2.41120723	      1.44633358	      0.91419957	     -0.32649267	      1.46567780	     -1.87089477	      0.72764321	     44.75081912	      0.78104914	     32.04839288	     -2.78475107	     -7.49999987	     -0.09177263	    -16.11162086	     -1.97837440	     44.30736116	      0.77330934	     34.72345463	      2.50453428	     -7.49999987	    -32.25584902	      1.32100841	      2.45964208	      1.76844301	    -13.57518178	     11.38345137	     11.96841660	     67.92210132	      1.67983362	    -11.47578292	      3.35394372	     19.22272366	     64.39867509
      2.58333330	     16.20153723	     -4.56231765	      2.46855977	      1.44213040	      0.91166998	     -0.32525715	      2.77536405	     -2.18988830	      0.93005679	     49.97485130	      0.87222570	     37.52327546	     -1.15413929	     -7.49999987	      1.37557092	    -16.35488045	     -1.99621573	     49.66686964	      0.86685040	     39.51933031	      3.51056415	     -7.49999987	    -36.09695239	      0.62371564	      2.12126835	      6.44239997	    -13.46263491	     11.20559780	     13.86754694	     67.78959634	      5.41412956	    -12.16161306	      3.23319345	     20.17373958	     64.52857344
      2.60000000	     16.26883530	     -4.43042332	      2.72301161	      1.44204013	      0.91271288	     -0.32521098	      3.42731070	     -2.41933534	      0.33318240	     51.90872271	      0.90597812	     40.37274346	      0.56489307	     -7.49999987	      2.56066023	    -16.70009481	     -2.30454611	     52.05633203	      0.90855439	     41.36884635	      4.25529460	     -7.49999987	    -38.02844171	      0.24823841	      1.96456107	     11.34280678	    -13.44404340	     10.98492009	     15.44880197	     67.67253778	      9.07497205	    -12.56975804	      3.18273506	     20.59604814	     64.75155484
      2.61666670	     16.25634206	     -4.47763700	      3.04849418	      1.44079331	      0.91308548	     -0.32638410	      3.32963246	     -2.56744342	     -0.57344908	     51.93760771	      0.90648226	     41.30449468	      1.75446561	     -7.49999987	      2.96587569	    -17.01446018	     -2.60887817	     52.54105098	      0.91701433	     41.76097289	      5.09634879	     -7.49999987	    -39.80190646	      0.30434742	      1.96335798	     16.33100005	    -13.76154000	     10.61501502	     17.75516568	     66.81538089	     13.25861038	    -12.74502563	      3.03430842	     21.47740637	     65.04330882
      2.63333330	     14.84549303	     -4.67505599	      3.25737036	      1.43379756	      0.90436823	     -0.32178636	      5.17161924	     -2.51621101	     -1.40831891	     52.48311761	      0.91600320	     42.23386654	      2.43537494	     -7.49999987	      4.94339253	    -17.73697197	     -3.16188180	     53.01472600	      0.92528152	     42.34949783	      6.64109918	     -7.49999987	    -40.30898843	      0.23029566	      2.06158889	     20.95409026	    -14.36432843	     10.11875854	     20.84811188	     66.05167327	     17.60504309	    -13.33252781	      2.85892205	     23.45929890	     65.56098428
